<?xml version="1.0" encoding="utf-8"?>
<!-- Generator: Adobe Illustrator 25.0.0, SVG Export Plug-In . SVG Version: 6.00 Build 0)  -->
<svg version="1.1" id="Layer_1" xmlns="http://www.w3.org/2000/svg" xmlns:xlink="http://www.w3.org/1999/xlink" x="0px" y="0px"
	 viewBox="0 0 2000 2000" style="enable-background:new 0 0 2000 2000;" xml:space="preserve">
<style type="text/css">
	.st0{fill:#FFFFFF;stroke:#5A5B5B;stroke-width:13.5661;stroke-miterlimit:10;}
	.st1{fill:#FFFFFF;stroke:#5A5B5B;stroke-width:11.8439;stroke-miterlimit:10;}
	.st2{display:none;fill:#FFFFFF;stroke:#000000;stroke-width:10;stroke-miterlimit:10;}
	.st3{fill:#FFFFFF;stroke:#5A5B5B;stroke-width:12.3949;stroke-miterlimit:10;}
	.st4{fill:none;}
	.st5{fill:#028EB0;}
	.st6{fill:#FDFDFD;}
	.st7{fill:#C1292E;}
	.st8{fill:#FFFFFF;}
	.st9{fill:none;stroke:#5A5B5B;stroke-width:14.9941;stroke-linecap:round;stroke-linejoin:round;}
	
		.st10{fill:none;stroke:#5A5B5B;stroke-width:14.9941;stroke-linecap:round;stroke-linejoin:round;stroke-dasharray:118.1851,118.1851;}
	.st11{fill:none;stroke:#5A5B5B;stroke-width:10;stroke-linecap:round;stroke-linejoin:round;stroke-miterlimit:10;}
</style>
<path class="st0" d="M1185.73,507.46h-167.56c0.7,2.47-0.77,5.53-4.42,5.53c-15.6,0-31.19,0.01-46.79,0c0,2.15-1.54,4.3-4.6,4.3
	h-53.29c-0.55,0-1.05-0.07-1.5-0.2c-1.17-0.02-2.35-0.04-3.52-0.07c0.9,0.54,1.79,1.11,2.66,1.71c4.72,3.26,0.53,10.45-4.8,7.42
	c-10.97-6.22-24.67-7.55-37.3-8.62c-6.32-0.54-12.68-0.9-19.03-1.39c-1.15,0.57-2.3,1.13-3.48,1.65c-3.78,1.66-7.6,3.04-11.21,3.02
	c1.44,3.85,1.9,7.97,0.93,12.23c-0.87,3.84-6.61,3.89-8.7,1.03c-2.27-3.11-4.33-6.31-5.97-9.61c-1.41,0.77-3.19,0.93-4.7-0.02
	c-2.27-1.43-4.39-3.03-6.27-4.78c-0.86,3.71-6.3,5.06-8.76,1.52c-2.9-4.17-4.8-8.86-5.4-13.71H621.57
	c-35.66,0-64.57,26.11-64.57,58.33v113.38c1.7,1.63,1.69,4.51,0,6.15v852.59c0,32.21,28.91,58.33,64.57,58.33h165.6
	c0.41-0.63,1-1.15,1.77-1.5c-0.42-0.64-0.68-1.36-0.72-2.15c-0.12-2.32,2.27-4.3,4.76-4.3c2.65,0,5.16,0.46,7.17,2.12
	c0.46,0.38,0.79,0.83,1.02,1.32h157.39c0.94,0,1.74,0.21,2.39,0.55c0.65-0.34,1.44-0.55,2.37-0.55c11.53-0.06,23.02-1.07,34.54-1.06
	c0.68-0.41,1.54-0.65,2.57-0.65h14.27c4.01,0,5.39,3.68,4.16,6.22h166.88c35.66,0,64.57-26.11,64.57-58.33V565.79
	C1250.31,533.58,1221.4,507.46,1185.73,507.46z"/>
<path class="st1" d="M1012.21,503c0,49.31-48.85,90-109.1,90c-60.26,0-109.1-39.97-109.1-89.29"/>
<path class="st2" d="M761.31,330.38c0-69.04,55.96-125,125-125s125,50.63,125,125"/>
<path class="st2" d="M761.48,1607.85c-0.11-2.19-0.17-4.39-0.17-6.61"/>
<path class="st3" d="M793,1601.24c0-54.25,48.62-98.24,108.6-98.24s108.6,43.98,108.6,98.24"/>
<g>
	<path class="st4" d="M1247.59,2084.59c-410.08,0-820.16-0.01-1230.23,0.11c-4.82,0-5.91-0.99-5.91-5.39
		c0.13-462.4,0.13-924.81,0-1387.21c0-4.4,1.08-5.4,5.91-5.4c820.16,0.11,1640.31,0.11,2460.47,0c4.82,0,5.91,0.99,5.91,5.39
		c-0.13,462.4-0.13,924.81,0,1387.21c0,4.4-1.09,5.4-5.91,5.4C2067.75,2084.58,1657.67,2084.59,1247.59,2084.59z M1031.97,1384.53
		c-0.19,15.9,1.66,31.57,5,47.17c11.22,52.4,39.27,95.74,84.06,129.89c13.43,10.24,28.68,18.3,44.47,25.26
		c13.58,5.99,28.21,9.71,42.8,12.47c30.4,5.75,60.78,5.74,91.04-2.6c21.86-6.03,42.28-14.11,61.24-25.86
		c13.07-8.1,25.05-17.06,35.89-27.5c15.45-14.88,28.43-31.22,38.92-49.41c15.83-27.44,24.96-56.5,28.01-87.3
		c5.03-50.73-6.92-98.05-35.13-141.77c-16.76-25.96-39.38-47.39-66.36-64.78c-16.46-10.61-34.65-18.69-53.88-23.75
		c-42.59-11.21-85.15-11.69-127.4,2.8c-18.75,6.43-36.13,14.58-52.2,25.49c-11.45,7.77-21.96,16.24-31.66,25.8
		c-15.86,15.65-28.75,32.97-39.14,52.04C1040.11,1314.66,1032.25,1348.78,1031.97,1384.53z"/>
	<path class="st5" d="M1031.97,1384.53c0.29-35.75,8.14-69.86,25.68-102.06c10.39-19.08,23.27-36.4,39.14-52.04
		c9.69-9.56,20.21-18.03,31.66-25.8c16.07-10.91,33.45-19.06,52.2-25.49c42.25-14.49,84.81-14.01,127.4-2.8
		c19.22,5.06,37.41,13.14,53.88,23.75c26.97,17.39,49.6,38.82,66.36,64.78c28.21,43.72,40.16,91.04,35.13,141.77
		c-3.05,30.8-12.18,59.86-28.01,87.3c-10.49,18.19-23.47,34.53-38.92,49.41c-10.84,10.44-22.82,19.4-35.89,27.5
		c-18.96,11.74-39.37,19.83-61.24,25.86c-30.26,8.34-60.65,8.35-91.04,2.6c-14.59-2.76-29.22-6.48-42.8-12.47
		c-15.79-6.97-31.04-15.02-44.47-25.26c-44.79-34.15-72.84-77.49-84.06-129.89C1033.63,1416.09,1031.78,1400.42,1031.97,1384.53z
		 M1454.43,1376.98c0.34-13.13-3.1-33.56-9.58-53.49c-11.63-35.78-30.66-67.58-60.79-93.51c-5.44-4.68-11.34-8.68-16.87-13.16
		c-16.29-13.23-35.78-21.53-55.53-28.98c-12.95-4.88-27.04-6.95-41.19-8.1c-43.32-3.53-84.09,2.47-121.52,24.22
		c-13.69,7.96-26.41,16.66-38.01,26.91c-13.05,11.53-24.09,24.41-33.64,38.52c-19.4,28.68-30.67,59.71-33.93,93.23
		c-6.48,66.59,13.85,125.1,63.78,174.41c15.74,15.54,34.83,27.39,55.17,37.43c10.99,5.42,22.95,9.21,34.87,12.07
		c36.38,8.71,72.89,9.31,108.87-2.42c11.9-3.88,23.62-7.83,34.81-13.61c19.59-10.12,36.67-22.63,51.89-37.64
		c15.91-15.69,28.53-33.21,38.54-52.5C1447.03,1450.05,1454.35,1418.15,1454.43,1376.98z"/>
	<path class="st6" d="M1454.43,1376.98c-0.08,41.17-7.4,73.06-23.13,103.36c-10.01,19.29-22.64,36.81-38.54,52.5
		c-15.22,15.02-32.3,27.52-51.89,37.64c-11.19,5.78-22.91,9.73-34.81,13.61c-35.98,11.73-72.49,11.13-108.87,2.42
		c-11.92-2.85-23.88-6.64-34.87-12.07c-20.34-10.04-39.43-21.89-55.17-37.43c-49.93-49.31-70.26-107.82-63.78-174.41
		c3.26-33.52,14.53-64.55,33.93-93.23c9.55-14.12,20.58-27,33.64-38.52c11.61-10.25,24.33-18.96,38.01-26.91
		c37.43-21.76,78.2-27.75,121.52-24.22c14.15,1.15,28.24,3.22,41.19,8.1c19.75,7.45,39.24,15.74,55.53,28.98
		c5.52,4.48,11.43,8.48,16.87,13.16c30.13,25.94,49.16,57.73,60.79,93.51C1451.33,1343.42,1454.77,1363.86,1454.43,1376.98z
		 M1243.15,1445.47c0,8.61,0.06,17.23-0.03,25.84c-0.04,3.48,0.7,6.67,5.2,6.6c4.49-0.07,5.05-3.32,5.03-6.76
		c-0.08-12.92,0.62-25.87-0.23-38.74c-0.72-10.95,0.47-19.97,13.82-23.8c1.8-0.52,2.96-2.65,4.7-3.6
		c15.02-8.24,29.52-17.19,43.94-26.27c8.84-5.57,9.2-6.42,3.55-15.22c-6.67-10.4-13.14-20.91-19.6-31.42
		c-15.68-25.54-31.28-51.11-46.97-76.64c-2.97-4.83-5.7-4.77-8.75,0.12c-5.57,8.94-11.01,17.94-16.55,26.89
		c-14.73,23.83-29.52,47.63-44.21,71.48c-3.11,5.05-5.95,10.25-8.81,15.43c-1.46,2.65-0.83,4.98,1.96,6.6
		c3.71,2.15,7.1,4.74,10.71,6.96c17.2,10.55,34.63,20.8,52.17,30.88c3.2,1.84,4.25,3.73,4.16,7.01
		C1243,1429.03,1243.15,1437.25,1243.15,1445.47z M1069.86,1385.74c0,5.08-0.27,10.18,0.08,15.24c0.35,5.05,1.19,10.08,2.05,15.09
		c7.24,42.27,27.35,78.66,61.68,107.76c17.09,14.48,36.49,26.46,59.43,32.53c2.66,0.7,5.5,1.05,7.96,2.14
		c14.84,6.59,30.82,6.49,46.72,6.9c3.73,0.1,5.43-1.88,5.44-5.13c0.01-3.26-1.77-5.11-5.39-5.33c-1.07-0.06-2.14-0.02-3.21-0.03
		c-18.17-0.27-35.62-2.9-52.68-9.38c-18.81-7.15-35.62-16.64-50.81-28.87c-11.55-9.31-21.69-19.8-29.9-31.57
		c-17.3-24.77-27.67-51.81-30.68-81.24c-3.45-33.77,2.02-66,18.09-96.65c2.02-3.85,4.41-7.55,6.22-11.48
		c1.25-2.7,0.96-5.61-2.32-7.08c-2.99-1.34-5.35-0.12-6.89,2.5C1078.26,1320.68,1069.19,1352.14,1069.86,1385.74z M1248.4,1503.38
		c-4.04-4.06-5.59-8.77-8.23-12.86c-6.79-10.53-13.41-21.15-19.94-31.82c-12.31-20.13-24.49-40.32-36.79-60.46
		c-1.48-2.42-3.37-4.87-7-2.92c-3.4,1.82-3.64,4.37-1.73,7.48c10.18,16.56,20.28,33.16,30.35,49.78
		c6.47,10.67,12.76,21.43,19.27,32.09c6.1,10,12.24,19.98,18.64,29.82c3.47,5.33,6.73,5.23,10.51,0.13
		c0.84-1.13,1.65-2.28,2.37-3.48c8.68-14.42,17.27-28.88,26.03-43.26c13-21.35,26.07-42.66,39.2-63.95
		c1.99-3.22,3.23-6.33-0.99-8.55c-4.35-2.29-5.98,1.14-7.64,3.81c-9.26,14.82-18.56,29.63-27.68,44.53
		c-5.89,9.63-11.4,19.45-17.27,29.09C1261.34,1482.91,1254.96,1492.9,1248.4,1503.38z M1256.55,1205.98c-3.13,0-5.7,0.05-8.27-0.02
		c-2.54-0.07-4.05,1.25-4.84,3.17c-0.75,1.81,0.2,3.37,1.6,4.75c1.94,1.92,4.07,2.72,7.1,2.72c29.94,0.07,57.06,8.9,82.56,22.57
		c0.55,0.3,1.14,0.56,1.63,0.93c12.6,9.58,25.99,18.37,36.05,30.48c2.19,2.64,5.3,3.96,8.19,1.32c2.77-2.53,2.25-5.72-0.39-8.36
		c-8.68-8.7-17.43-17.42-27.66-24.59c-15.08-10.57-31.7-18.92-49.48-25.01C1287.95,1208.78,1272.09,1206.58,1256.55,1205.98z
		 M1427.06,1392.82c0-0.39,0-0.78,0-1.17c-0.06-4.49,1.28-11.14-5.1-11.18c-5.64-0.04-4.93,6.51-5.09,10.91
		c-0.92,26.43-7.53,51.54-20.49,75.29c-7.35,13.47-16.4,25.81-27.25,37.07c-2.77,2.88-3.94,5.93-0.73,8.77
		c3.38,2.98,6.39,0.82,8.64-1.78c11.87-13.7,22.76-27.93,30.8-43.93C1419.68,1443.27,1425.68,1418.57,1427.06,1392.82z"/>
	<path class="st5" d="M1243.15,1445.47c0-8.22-0.15-16.45,0.07-24.66c0.09-3.28-0.96-5.17-4.16-7.01
		c-17.54-10.08-34.96-20.33-52.17-30.88c-3.61-2.21-7-4.81-10.71-6.96c-2.79-1.62-3.42-3.96-1.96-6.6
		c2.86-5.18,5.7-10.38,8.81-15.43c14.69-23.85,29.48-47.65,44.21-71.48c5.54-8.95,10.98-17.95,16.55-26.89
		c3.05-4.89,5.78-4.95,8.75-0.12c15.69,25.53,31.29,51.11,46.97,76.64c6.46,10.51,12.93,21.02,19.6,31.42
		c5.65,8.8,5.29,9.65-3.55,15.22c-14.42,9.08-28.92,18.03-43.94,26.27c-1.74,0.95-2.9,3.08-4.7,3.6
		c-13.35,3.83-14.54,12.85-13.82,23.8c0.85,12.87,0.15,25.83,0.23,38.74c0.02,3.44-0.54,6.69-5.03,6.76c-4.5,0.07-5.24-3.12-5.2-6.6
		C1243.21,1462.7,1243.15,1454.09,1243.15,1445.47z M1248.55,1267.37c-1.9,2.72-3.1,4.28-4.12,5.93
		c-11.36,18.41-22.7,36.83-34.02,55.27c-7.48,12.18-14.96,24.36-22.35,36.59c-1.41,2.33-4.02,4.6,0.53,7.09
		c10.17,5.57,20.4,11.14,29.93,17.56c9.18,6.18,19.5,10.7,28.38,17.21c1.07,0.79,1.55,0.89,2.57,0.27
		c19.53-11.77,39.02-23.59,58.68-35.19c3.19-1.88,2.34-3.57,1.05-5.67c-3.77-6.09-7.61-12.15-11.39-18.24
		c-6.18-9.96-12.41-19.89-18.49-29.9C1269.21,1301.71,1259.22,1285.07,1248.55,1267.37z"/>
	<path class="st7" d="M1069.86,1385.74c-0.66-33.6,8.4-65.06,25.78-94.59c1.54-2.62,3.9-3.84,6.89-2.5
		c3.28,1.47,3.57,4.38,2.32,7.08c-1.82,3.92-4.21,7.63-6.22,11.48c-16.06,30.65-21.54,62.89-18.09,96.65
		c3.01,29.43,13.38,56.47,30.68,81.24c8.22,11.77,18.35,22.26,29.9,31.57c15.19,12.23,32,21.72,50.81,28.87
		c17.06,6.48,34.51,9.11,52.68,9.38c1.07,0.02,2.15-0.03,3.21,0.03c3.62,0.22,5.41,2.07,5.39,5.33c-0.01,3.25-1.71,5.23-5.44,5.13
		c-15.9-0.41-31.88-0.31-46.72-6.9c-2.45-1.09-5.3-1.44-7.96-2.14c-22.94-6.07-42.34-18.05-59.43-32.53
		c-34.33-29.1-54.44-65.5-61.68-107.76c-0.86-5.01-1.7-10.04-2.05-15.09C1069.58,1395.92,1069.86,1390.82,1069.86,1385.74z"/>
	<path class="st5" d="M1248.4,1503.38c6.56-10.48,12.94-20.47,19.1-30.58c5.87-9.64,11.38-19.46,17.27-29.09
		c9.12-14.9,18.42-29.7,27.68-44.53c1.67-2.67,3.3-6.1,7.64-3.81c4.22,2.22,2.98,5.33,0.99,8.55c-13.13,21.28-26.2,42.6-39.2,63.95
		c-8.75,14.38-17.35,28.85-26.03,43.26c-0.72,1.2-1.53,2.35-2.37,3.48c-3.78,5.1-7.04,5.21-10.51-0.13
		c-6.4-9.84-12.53-19.83-18.64-29.82c-6.5-10.65-12.8-21.42-19.27-32.09c-10.07-16.62-20.18-33.22-30.35-49.78
		c-1.91-3.11-1.67-5.66,1.73-7.48c3.64-1.95,5.53,0.5,7,2.92c12.3,20.14,24.47,40.33,36.79,60.46
		c6.53,10.67,13.14,21.29,19.94,31.82C1242.82,1494.61,1244.36,1499.32,1248.4,1503.38z"/>
	<path class="st7" d="M1256.55,1205.98c15.54,0.6,31.4,2.8,46.47,7.97c17.78,6.09,34.4,14.45,49.48,25.01
		c10.23,7.17,18.98,15.89,27.66,24.59c2.64,2.65,3.16,5.83,0.39,8.36c-2.89,2.64-6,1.32-8.19-1.32
		c-10.05-12.1-23.45-20.9-36.05-30.48c-0.49-0.37-1.07-0.64-1.63-0.93c-25.51-13.67-52.62-22.5-82.56-22.57
		c-3.03-0.01-5.16-0.81-7.1-2.72c-1.4-1.38-2.34-2.94-1.6-4.75c0.79-1.92,2.31-3.23,4.84-3.17
		C1250.85,1206.03,1253.42,1205.98,1256.55,1205.98z"/>
	<path class="st7" d="M1427.06,1392.82c-1.38,25.75-7.38,50.45-19.21,73.98c-8.04,16-18.93,30.23-30.8,43.93
		c-2.25,2.6-5.26,4.76-8.64,1.78c-3.22-2.83-2.04-5.89,0.73-8.77c10.85-11.27,19.9-23.6,27.25-37.07
		c12.96-23.75,19.57-48.86,20.49-75.29c0.15-4.4-0.56-10.95,5.09-10.91c6.38,0.04,5.04,6.69,5.1,11.18
		C1427.07,1392.04,1427.06,1392.43,1427.06,1392.82z"/>
	<path class="st5" d="M1248.55,1267.37c10.68,17.7,20.66,34.34,30.75,50.93c6.08,10.01,12.31,19.94,18.49,29.9
		c3.78,6.09,7.62,12.15,11.39,18.24c1.3,2.1,2.15,3.78-1.05,5.67c-19.65,11.6-39.14,23.42-58.68,35.19
		c-1.02,0.61-1.49,0.52-2.57-0.27c-8.87-6.52-19.2-11.03-28.38-17.21c-9.53-6.41-19.76-11.98-29.93-17.56
		c-4.55-2.49-1.93-4.77-0.53-7.09c7.39-12.23,14.87-24.41,22.35-36.59c11.32-18.43,22.66-36.85,34.02-55.27
		C1245.45,1271.65,1246.65,1270.09,1248.55,1267.37z"/>
</g>
<g>
	<line class="st8" x1="1247.89" y1="761.89" x2="557" y2="761.89"/>
	<g>
		<line class="st9" x1="1247.89" y1="761.89" x2="1197.91" y2="761.89"/>
		<line class="st10" x1="1079.72" y1="761.89" x2="666.07" y2="761.89"/>
		<line class="st9" x1="606.98" y1="761.89" x2="557" y2="761.89"/>
	</g>
</g>
<line class="st11" x1="740.29" y1="969.91" x2="1067.29" y2="969.91"/>
<line class="st11" x1="736.29" y1="1227.1" x2="1063.29" y2="1227.1"/>
<line class="st11" x1="1028.29" y1="1105" x2="775.29" y2="1105"/>
</svg>
